<?xml version="1.0" encoding="UTF-8" standalone="no"?>
<!-- Created with Inkscape (http://www.inkscape.org/) -->
<svg
   xmlns:svg="http://www.w3.org/2000/svg"
   xmlns="http://www.w3.org/2000/svg"
   version="1.0"
   width="154.46152"
   height="205.51118"
   id="svg2430">
  <defs
     id="defs2432">




















</defs>
  <g
     transform="translate(-294.19156,-521.03516)"
     id="layer1">
    <path
       d="M 444.9406,524.81013 L 444.7031,524.58513 L 444.4656,524.36013 L 444.2156,524.13514 L 443.9781,523.93514 L 443.72811,523.72264 L 443.47811,523.53514 L 443.21561,523.34764 L 442.96561,523.16014 L 442.70311,522.98514 L 442.44061,522.82264 L 442.17812,522.66014 L 441.91562,522.51015 L 441.64062,522.37265 L 441.36562,522.23515 L 441.09062,522.09765 L 440.81562,521.98515 L 440.52813,521.87265 L 440.24063,521.76015 L 439.95313,521.66015 L 439.66563,521.57265 L 439.36563,521.48515 L 439.07814,521.41015 L 438.77814,521.33515 L 438.46564,521.27265 L 438.16564,521.22265 L 437.85314,521.17265 L 437.54065,521.13515 L 437.22815,521.09765 L 436.90315,521.07265 L 436.57815,521.04766 L 436.25315,521.03516 L 435.92816,521.03516 L 306.99148,521.03516 C 303.454,521.03516 300.42902,522.29765 297.97904,524.81013 C 295.45406,527.27262 294.19156,530.2976 294.19156,533.83507 L 294.19156,655.0843 C 294.19156,658.60927 295.45406,661.63426 297.97904,664.09674 C 300.42902,666.60922 303.454,667.80922 306.99148,667.80922 L 435.92816,667.80922 C 439.45313,667.80922 442.41561,666.60922 444.9406,664.09674 C 447.45308,661.63426 448.65307,658.60927 448.65307,655.0843 L 448.65307,533.83507 C 448.65307,530.2976 447.45308,527.27262 444.9406,524.81013 z"
       id="path14"
       style="font-style:normal;font-variant:normal;font-weight:normal;font-stretch:normal;letter-spacing:normal;word-spacing:normal;text-anchor:start;fill:#000000;fill-opacity:1;fill-rule:evenodd;stroke:#000000;stroke-width:0;stroke-linecap:butt;stroke-linejoin:miter;stroke-miterlimit:10.43299961;stroke-dasharray:none;stroke-dashoffset:0;stroke-opacity:1" />
    <path
       d="M 444.6281,533.83507 L 444.6281,533.61007 L 444.6156,533.38508 L 444.6031,533.16008 L 444.5906,532.94758 L 444.5656,532.73508 L 444.5281,532.52258 L 444.5031,532.31008 L 444.4656,532.09758 L 444.4156,531.89759 L 444.3656,531.68509 L 444.3156,531.48509 L 444.2531,531.28509 L 444.1906,531.08509 L 444.1281,530.89759 L 444.0531,530.69759 L 443.9781,530.49759 L 443.89061,530.3101 L 443.80311,530.1226 L 443.70311,529.9351 L 443.60311,529.7476 L 443.50311,529.5726 L 443.39061,529.3851 L 443.27811,529.2101 L 443.16561,529.0226 L 443.04061,528.84761 L 442.91561,528.67261 L 442.77811,528.49761 L 442.64061,528.32261 L 442.50311,528.16011 L 442.35311,527.98511 L 442.19062,527.82261 L 442.04062,527.64761 C 440.40313,525.94762 438.32814,525.12263 435.92816,525.12263 L 306.99148,525.12263 C 304.529,525.12263 302.51651,525.94762 300.81652,527.64761 C 299.11653,529.4101 298.29154,531.43509 298.29154,533.83507 L 298.29154,655.0843 C 298.29154,657.47178 299.11653,659.55927 300.81652,661.25926 C 302.51651,662.95925 304.529,663.77174 306.99148,663.77174 L 435.92816,663.77174 C 438.32814,663.77174 440.40313,662.95925 442.04062,661.25926 C 443.74061,659.55927 444.6281,657.47178 444.6281,655.0843 L 444.6281,533.83507 z"
       id="path16"
       style="font-style:normal;font-variant:normal;font-weight:normal;font-stretch:normal;letter-spacing:normal;word-spacing:normal;text-anchor:start;fill:#f3c70c;fill-opacity:1;fill-rule:evenodd;stroke:#f3c70c;stroke-width:0;stroke-linecap:butt;stroke-linejoin:miter;stroke-miterlimit:10.43299961;stroke-dasharray:none;stroke-dashoffset:0;stroke-opacity:1" />
    <path
       d="M 439.20314,530.54759 L 439.11564,530.47259 L 439.02814,530.3851 L 438.94064,530.3101 L 438.84064,530.2351 L 438.75314,530.1726 L 438.66564,530.0976 L 438.56564,530.0351 L 438.46564,529.9726 L 438.37814,529.9101 L 438.27814,529.8476 L 438.17814,529.7976 L 438.09064,529.7476 L 437.99064,529.6976 L 437.89064,529.6476 L 437.79064,529.5976 L 437.67814,529.5601 L 437.57815,529.5226 L 437.47815,529.4851 L 437.37815,529.4476 L 437.26565,529.4101 L 437.16565,529.3851 L 437.05315,529.3601 L 436.94065,529.3351 L 436.84065,529.3101 L 436.72815,529.2851 L 436.61565,529.2726 L 436.50315,529.2601 L 436.39065,529.2476 L 436.27815,529.2351 L 436.16565,529.2351 L 436.04066,529.2226 L 435.92816,529.2226 L 306.99148,529.2226 C 305.72899,529.2226 304.5915,529.6726 303.704,530.54759 C 302.82901,531.43509 302.31651,532.57258 302.31651,533.83507 L 302.31651,655.0843 C 302.31651,656.33429 302.82901,657.47178 303.704,658.35928 C 304.5915,659.23427 305.72899,659.68427 306.99148,659.68427 L 435.92816,659.68427 C 437.19065,659.68427 438.26564,659.23427 439.20314,658.35928 C 440.09063,657.47178 440.52813,656.33429 440.52813,655.0843 L 440.52813,533.83507 C 440.52813,532.57258 440.09063,531.43509 439.20314,530.54759 z"
       id="path18"
       style="font-style:normal;font-variant:normal;font-weight:normal;font-stretch:normal;letter-spacing:normal;word-spacing:normal;text-anchor:start;fill:#000000;fill-opacity:1;fill-rule:evenodd;stroke:#000000;stroke-width:0;stroke-linecap:butt;stroke-linejoin:miter;stroke-miterlimit:10.43299961;stroke-dasharray:none;stroke-dashoffset:0;stroke-opacity:1" />
    <polygon
       points="345.36,455.91 310.02,455.91 299.02,489.29 287.83,455.91 252.19,455.91 281.33,435.39 270.44,401.96 298.88,422.33 327.81,401.46 317.13,435.74 345.36,455.91 "
       transform="matrix(1.249992,0,0,-1.249992,-0.61905,1149.9686)"
       id="polygon20"
       style="font-style:normal;font-variant:normal;font-weight:normal;font-stretch:normal;letter-spacing:normal;word-spacing:normal;text-anchor:start;fill:#f3c70c;fill-opacity:1;fill-rule:evenodd;stroke:#f3c70c;stroke-width:0;stroke-linecap:butt;stroke-linejoin:miter;stroke-miterlimit:10.43299961;stroke-dasharray:none;stroke-dashoffset:0;stroke-opacity:1" />
    <polygon
       points="333.66,452.58 307.19,452.58 298.97,477.59 290.61,452.58 263.88,452.58 285.66,437.2 277.55,412.2 298.88,427.42 320.5,411.79 312.54,437.46 333.66,452.58 "
       transform="matrix(1.249992,0,0,-1.249992,-0.61905,1149.9686)"
       id="polygon22"
       style="font-style:normal;font-variant:normal;font-weight:normal;font-stretch:normal;letter-spacing:normal;word-spacing:normal;text-anchor:start;fill:#000000;fill-opacity:1;fill-rule:evenodd;stroke:#000000;stroke-width:0;stroke-linecap:butt;stroke-linejoin:miter;stroke-miterlimit:10.43299961;stroke-dasharray:none;stroke-dashoffset:0;stroke-opacity:1" />
    <polygon
       points="309.11,438.21 325.09,449.61 305.13,449.61 298.92,468.46 292.62,449.61 272.45,449.61 288.89,438.01 282.79,419.16 298.82,430.65 315.16,418.85 309.11,438.21 "
       transform="matrix(1.249992,0,0,-1.249992,-0.61905,1149.9686)"
       id="polygon24"
       style="font-style:normal;font-variant:normal;font-weight:normal;font-stretch:normal;letter-spacing:normal;word-spacing:normal;text-anchor:start;fill:#ffffff;fill-opacity:1;fill-rule:evenodd;stroke:#ffffff;stroke-width:0;stroke-linecap:butt;stroke-linejoin:miter;stroke-miterlimit:10.43299961;stroke-dasharray:none;stroke-dashoffset:0;stroke-opacity:1" />
    <path
       d="M 306.99148,671.72169 L 306.65398,671.72169 L 306.32899,671.73419 L 306.00399,671.74669 L 305.69149,671.78419 L 305.36649,671.80919 L 305.05399,671.84669 L 304.7415,671.89669 L 304.429,671.95919 L 304.129,672.02169 L 303.829,672.08419 L 303.529,672.17169 L 303.22901,672.24669 L 302.94151,672.34669 L 302.65401,672.44669 L 302.36651,672.54669 L 302.07901,672.65918 L 301.80401,672.78418 L 301.51652,672.90918 L 301.24152,673.04668 L 300.97902,673.19668 L 300.70402,673.34668 L 300.44152,673.50918 L 300.17902,673.67168 L 299.92903,673.84668 L 299.66653,674.02168 L 299.41653,674.20917 L 299.16653,674.40917 L 298.91653,674.60917 L 298.67903,674.82167 L 298.44154,675.04667 L 298.20404,675.27167 L 297.97904,675.49667 C 295.45406,677.95915 294.19156,680.98413 294.19156,684.50911 L 294.19156,713.80892 C 294.19156,717.2839 295.45406,720.30888 297.97904,722.75886 C 300.42902,725.28385 303.454,726.54634 306.99148,726.54634 L 435.92816,726.54634 C 439.45313,726.54634 442.41561,725.28385 444.9406,722.75886 C 447.45308,720.30888 448.65307,717.2839 448.65307,713.80892 L 448.65307,684.50911 C 448.65307,680.98413 447.45308,677.95915 444.9406,675.49667 C 442.41561,672.98418 439.45313,671.72169 435.92816,671.72169 L 306.99148,671.72169 z"
       id="path26"
       style="font-style:normal;font-variant:normal;font-weight:normal;font-stretch:normal;letter-spacing:normal;word-spacing:normal;text-anchor:start;fill:#000000;fill-opacity:1;fill-rule:evenodd;stroke:#000000;stroke-width:0;stroke-linecap:butt;stroke-linejoin:miter;stroke-miterlimit:10.43299961;stroke-dasharray:none;stroke-dashoffset:0;stroke-opacity:1" />
    <path
       d="M 300.81652,678.33415 L 300.65402,678.49665 L 300.50402,678.65915 L 300.35402,678.82165 L 300.21652,678.99664 L 300.07903,679.15914 L 299.94153,679.33414 L 299.81653,679.50914 L 299.70403,679.68414 L 299.57903,679.85914 L 299.46653,680.03414 L 299.36653,680.22164 L 299.26653,680.40914 L 299.16653,680.59663 L 299.07903,680.78413 L 298.99153,680.97163 L 298.91653,681.15913 L 298.84153,681.35913 L 298.76653,681.55913 L 298.70403,681.74663 L 298.64153,681.95913 L 298.57904,682.15912 L 298.52904,682.35912 L 298.49154,682.57162 L 298.44154,682.77162 L 298.40404,682.98412 L 298.37904,683.19662 L 298.35404,683.40912 L 298.32904,683.63411 L 298.31654,683.84661 L 298.30404,684.07161 L 298.29154,684.28411 L 298.29154,684.50911 L 298.29154,713.80892 C 298.29154,716.20891 299.11653,718.23389 300.81652,719.92138 C 302.51651,721.63387 304.529,722.44637 306.99148,722.44637 L 435.92816,722.44637 C 438.32814,722.44637 440.40313,721.63387 442.04062,719.92138 C 443.74061,718.23389 444.6281,716.20891 444.6281,713.80892 L 444.6281,684.50911 C 444.6281,682.10912 443.74061,680.03414 442.04062,678.33415 C 440.40313,676.63416 438.32814,675.82166 435.92816,675.82166 L 306.99148,675.82166 C 304.529,675.82166 302.51651,676.63416 300.81652,678.33415 z"
       id="path28"
       style="font-style:normal;font-variant:normal;font-weight:normal;font-stretch:normal;letter-spacing:normal;word-spacing:normal;text-anchor:start;fill:#f3c70c;fill-opacity:1;fill-rule:evenodd;stroke:#f3c70c;stroke-width:0;stroke-linecap:butt;stroke-linejoin:miter;stroke-miterlimit:10.43299961;stroke-dasharray:none;stroke-dashoffset:0;stroke-opacity:1" />
    <path
       d="M 306.99148,679.90914 L 306.86648,679.90914 L 306.75398,679.90914 L 306.64148,679.92164 L 306.51648,679.93414 L 306.40399,679.94664 L 306.29149,679.95914 L 306.17899,679.97164 L 306.06649,679.99664 L 305.95399,680.00914 L 305.84149,680.03414 L 305.74149,680.05914 L 305.62899,680.09664 L 305.51649,680.12164 L 305.41649,680.15914 L 305.31649,680.19664 L 305.20399,680.24664 L 305.10399,680.28414 L 305.00399,680.33414 L 304.90399,680.37164 L 304.804,680.42164 L 304.704,680.48413 L 304.604,680.53413 L 304.5165,680.59663 L 304.4165,680.65913 L 304.329,680.72163 L 304.229,680.78413 L 304.1415,680.85913 L 304.054,680.92163 L 303.9665,680.99663 L 303.879,681.07163 L 303.7915,681.15913 L 303.704,681.23413 C 302.82901,682.10912 302.31651,683.24662 302.31651,684.50911 L 302.31651,713.80892 C 302.31651,715.08391 302.82901,716.14641 303.704,717.0339 C 304.5915,717.97139 305.72899,718.42139 306.99148,718.42139 L 435.92816,718.42139 C 437.19065,718.42139 438.26564,717.97139 439.20314,717.0339 C 440.09063,716.14641 440.52813,715.08391 440.52813,713.80892 L 440.52813,684.50911 C 440.52813,683.24662 440.09063,682.10912 439.20314,681.23413 C 438.26564,680.34664 437.19065,679.90914 435.92816,679.90914 L 306.99148,679.90914 z"
       id="path30"
       style="font-style:normal;font-variant:normal;font-weight:normal;font-stretch:normal;letter-spacing:normal;word-spacing:normal;text-anchor:start;fill:#000000;fill-opacity:1;fill-rule:evenodd;stroke:#000000;stroke-width:0;stroke-linecap:butt;stroke-linejoin:miter;stroke-miterlimit:10.43299961;stroke-dasharray:none;stroke-dashoffset:0;stroke-opacity:1" />
    <polygon
       points="249.87,370.45 249.87,353.16 252.99,350.18 258.24,350.18 261.26,353.16 261.26,370.45 256.57,370.45 256.57,354.02 254.55,354.02 254.55,370.45 249.87,370.45 "
       transform="matrix(1.249992,0,0,-1.249992,-0.61905,1149.9686)"
       id="polygon34"
       style="font-style:normal;font-variant:normal;font-weight:normal;font-stretch:normal;letter-spacing:normal;word-spacing:normal;text-anchor:start;fill:#ffffff;fill-opacity:1;fill-rule:evenodd;stroke:#ffffff;stroke-width:0;stroke-linecap:butt;stroke-linejoin:miter;stroke-miterlimit:10.43299961;stroke-dasharray:none;stroke-dashoffset:0;stroke-opacity:1" />
    <path
       d="M 392.62843,697.184 L 392.62843,690.55904 L 388.72846,686.90906 L 378.70352,686.90906 L 378.70352,712.2464 L 384.50349,712.2464 L 384.50349,702.09647 L 386.96597,702.09647 L 386.96597,712.2464 L 392.62843,712.2464 L 392.62843,702.09647 L 389.66595,699.63398 L 392.62843,697.184 z M 384.50349,697.3715 L 386.96597,697.3715 L 386.96597,691.63403 L 384.50349,691.63403 L 384.50349,697.3715 z"
       id="polygon32"
       style="font-style:normal;font-variant:normal;font-weight:normal;font-stretch:normal;letter-spacing:normal;word-spacing:normal;text-anchor:start;fill:#ffffff;fill-opacity:1;fill-rule:evenodd;stroke:#ffffff;stroke-width:0;stroke-linecap:butt;stroke-linejoin:miter;stroke-miterlimit:10.43299961;stroke-dashoffset:0;stroke-opacity:1" />
    <polygon
       points="331.49,370.45 326,370.45 324.48,360.67 324.08,360.67 322.42,370.45 316.97,370.45 316.97,350.18 321.21,350.18 321.21,363.04 321.41,363.04 323.38,350.18 325.09,350.18 327.05,363.04 327.26,363.04 327.26,350.18 331.49,350.18 331.49,370.45 "
       transform="matrix(1.249992,0,0,-1.249992,-0.61905,1149.9686)"
       id="polygon38"
       style="font-style:normal;font-variant:normal;font-weight:normal;font-stretch:normal;letter-spacing:normal;word-spacing:normal;text-anchor:start;fill:#ffffff;fill-opacity:1;fill-rule:evenodd;stroke:#ffffff;stroke-width:0;stroke-linecap:butt;stroke-linejoin:miter;stroke-miterlimit:10.43299961;stroke-dasharray:none;stroke-dashoffset:0;stroke-opacity:1" />
    <polygon
       points="339.76,363.14 339.71,363.14 338.05,370.45 333.41,370.45 337.39,358.71 337.39,350.18 342.08,350.18 342.08,358.71 346.11,370.45 341.48,370.45 339.76,363.14 "
       transform="matrix(1.249992,0,0,-1.249992,-0.61905,1149.9686)"
       id="polygon40"
       style="font-style:normal;font-variant:normal;font-weight:normal;font-stretch:normal;letter-spacing:normal;word-spacing:normal;text-anchor:start;fill:#ffffff;fill-opacity:1;fill-rule:evenodd;stroke:#ffffff;stroke-width:0;stroke-linecap:butt;stroke-linejoin:miter;stroke-miterlimit:10.43299961;stroke-dasharray:none;stroke-dashoffset:0;stroke-opacity:1" />
    <polygon
       points="262.82,350.18 267.51,350.18 267.51,354.12 262.82,354.12 262.82,350.18 "
       transform="matrix(1.249992,0,0,-1.249992,-0.61905,1149.9686)"
       id="polygon42"
       style="font-style:normal;font-variant:normal;font-weight:normal;font-stretch:normal;letter-spacing:normal;word-spacing:normal;text-anchor:start;fill:#ffffff;fill-opacity:1;fill-rule:evenodd;stroke:#ffffff;stroke-width:0;stroke-linecap:butt;stroke-linejoin:miter;stroke-miterlimit:10.43299961;stroke-dasharray:none;stroke-dashoffset:0;stroke-opacity:1" />
    <polygon
       points="282.34,350.18 286.97,350.18 286.97,354.12 282.34,354.12 282.34,350.18 "
       transform="matrix(1.249992,0,0,-1.249992,-0.61905,1149.9686)"
       id="polygon44"
       style="font-style:normal;font-variant:normal;font-weight:normal;font-stretch:normal;letter-spacing:normal;word-spacing:normal;text-anchor:start;fill:#ffffff;fill-opacity:1;fill-rule:evenodd;stroke:#ffffff;stroke-width:0;stroke-linecap:butt;stroke-linejoin:miter;stroke-miterlimit:10.43299961;stroke-dasharray:none;stroke-dashoffset:0;stroke-opacity:1" />
    <polygon
       points="280.72,367.53 277.45,370.45 272.5,370.45 269.48,367.53 269.48,361.43 272.71,358.5 276.04,358.25 276.04,354.02 274.12,354.02 274.12,356.69 269.48,356.69 269.48,353.16 272.5,350.18 277.65,350.18 280.72,353.16 280.72,359.31 277.55,362.23 274.12,362.54 274.12,366.67 276.04,366.67 276.04,363.95 280.72,363.95 280.72,367.53 "
       transform="matrix(1.249992,0,0,-1.249992,-0.61905,1149.9686)"
       id="polygon46"
       style="font-style:normal;font-variant:normal;font-weight:normal;font-stretch:normal;letter-spacing:normal;word-spacing:normal;text-anchor:start;fill:#ffffff;fill-opacity:1;fill-rule:evenodd;stroke:#ffffff;stroke-width:0;stroke-linecap:butt;stroke-linejoin:miter;stroke-miterlimit:10.43299961;stroke-dasharray:none;stroke-dashoffset:0;stroke-opacity:1" />
    <path
       d="M 372.59106,686.90906 L 364.15362,686.90906 L 360.61614,712.2464 L 366.2911,712.2464 L 366.7911,707.52143 L 370.14108,707.52143 L 370.64107,712.2464 L 376.30354,712.2464 L 372.59106,686.90906 z M 367.1661,702.78396 L 368.05359,692.25903 L 368.61609,692.25903 L 369.69108,702.78396 L 367.1661,702.78396 z"
       id="polygon48"
       style="font-style:normal;font-variant:normal;font-weight:normal;font-stretch:normal;letter-spacing:normal;word-spacing:normal;text-anchor:start;fill:#ffffff;fill-opacity:1;fill-rule:evenodd;stroke:#ffffff;stroke-width:0;stroke-linecap:butt;stroke-linejoin:miter;stroke-miterlimit:10.43299961;stroke-dashoffset:0;stroke-opacity:1" />
  </g>
</svg>
