<?xml version="1.0" encoding="iso-8859-1"?>
<!-- Generator: Adobe Illustrator 16.0.0, SVG Export Plug-In . SVG Version: 6.00 Build 0)  -->
<!DOCTYPE svg PUBLIC "-//W3C//DTD SVG 1.1//EN" "http://www.w3.org/Graphics/SVG/1.1/DTD/svg11.dtd">
<svg version="1.1" id="Capa_1" xmlns="http://www.w3.org/2000/svg" xmlns:xlink="http://www.w3.org/1999/xlink" x="0px" y="0px"
	 width="26.911px" height="26.912px" viewBox="0 0 26.911 26.912" style="enable-background:new 0 0 26.911 26.912;"
	 xml:space="preserve">
<g>
	<g>
		<path style="fill:#333333;" d="M6.493,0h1.565l1.008,4.027h0.098l0.962-4.026h1.581l-1.809,5.89v4.18H8.343V6.082L6.493,0z"/>
		<path style="fill:#333333;" d="M11.637,4.341c0-0.575,0.187-1.034,0.558-1.374c0.372-0.34,0.871-0.513,1.499-0.513
			c0.572,0,1.041,0.179,1.405,0.541c0.364,0.357,0.548,0.822,0.548,1.386v3.838c0,0.635-0.18,1.134-0.536,1.498
			c-0.359,0.362-0.85,0.543-1.479,0.543c-0.607,0-1.088-0.189-1.454-0.562c-0.363-0.372-0.542-0.875-0.542-1.506L11.637,4.341
			L11.637,4.341z M13.056,8.331c0,0.203,0.049,0.362,0.151,0.474c0.097,0.11,0.238,0.166,0.421,0.166
			c0.188,0,0.334-0.057,0.445-0.171c0.109-0.111,0.166-0.269,0.166-0.469V4.285c0-0.161-0.059-0.293-0.17-0.393
			c-0.112-0.099-0.26-0.15-0.441-0.15c-0.169,0-0.308,0.052-0.413,0.15c-0.105,0.1-0.159,0.232-0.159,0.393V8.331z"/>
		<path style="fill:#333333;" d="M20.761,2.643v7.428H19.38V9.25c-0.255,0.303-0.52,0.534-0.796,0.691
			c-0.273,0.156-0.542,0.237-0.801,0.237c-0.319,0-0.559-0.11-0.721-0.331c-0.163-0.221-0.242-0.551-0.242-0.996V2.643h1.379V8.34
			c0,0.172,0.029,0.3,0.09,0.379c0.055,0.077,0.152,0.118,0.278,0.118c0.104,0,0.233-0.052,0.385-0.156
			c0.156-0.103,0.299-0.238,0.428-0.398v-5.64H20.761z"/>
	</g>
	<g>
		<path style="fill:#333333;" d="M20.931,17.979c-0.166,0-0.28,0.045-0.348,0.139c-0.049,0.068-0.109,0.228-0.109,0.575v0.595h0.905
			v-0.595c0-0.342-0.062-0.502-0.113-0.579C21.2,18.024,21.091,17.979,20.931,17.979z"/>
		<path style="fill:#333333;" d="M15.63,18.008c-0.065,0.032-0.129,0.082-0.196,0.149v4.502c0.083,0.085,0.165,0.147,0.24,0.186
			c0.084,0.043,0.17,0.063,0.262,0.063c0.177,0,0.23-0.069,0.248-0.096c0.041-0.053,0.09-0.167,0.09-0.413v-3.835
			c0-0.214-0.039-0.378-0.115-0.48C16.057,17.949,15.856,17.896,15.63,18.008z"/>
		<path style="fill:#333333;" d="M24.685,14.984c0-1.793-1.474-3.248-3.284-3.248c-2.589-0.108-5.239-0.155-7.945-0.152
			c-2.704-0.003-5.354,0.044-7.945,0.152c-1.812,0-3.284,1.455-3.284,3.248c-0.108,1.42-0.157,2.841-0.153,4.263
			c-0.004,1.42,0.045,2.842,0.155,4.263c0,1.796,1.47,3.251,3.282,3.251c2.59,0.107,5.241,0.153,7.945,0.15
			c2.706,0.006,5.356-0.043,7.945-0.15c1.811,0,3.284-1.455,3.284-3.251c0.108-1.421,0.158-2.843,0.152-4.263
			C24.844,17.825,24.794,16.404,24.685,14.984z M7.159,24.136c0,0.086-0.07,0.156-0.157,0.156H5.447
			c-0.086,0-0.156-0.07-0.156-0.156v-8.452H3.839c-0.086,0-0.156-0.069-0.156-0.154v-1.459c0-0.085,0.07-0.156,0.156-0.156h4.773
			c0.086,0,0.156,0.071,0.156,0.156v1.459c0,0.085-0.07,0.154-0.156,0.154H7.159V24.136z M12.693,24.136
			c0,0.086-0.069,0.156-0.156,0.156h-1.382c-0.086,0-0.156-0.07-0.156-0.156v-0.422c-0.185,0.179-0.369,0.321-0.561,0.43
			c-0.301,0.173-0.588,0.258-0.88,0.258c-0.37,0-0.655-0.135-0.847-0.397c-0.181-0.247-0.273-0.614-0.273-1.089v-6.207
			c0-0.085,0.069-0.155,0.156-0.155h1.382c0.086,0,0.156,0.07,0.156,0.155v5.692c0,0.188,0.034,0.264,0.055,0.293
			c0.01,0.014,0.038,0.051,0.155,0.051c0.04,0,0.131-0.017,0.295-0.128c0.133-0.09,0.253-0.198,0.359-0.326v-5.581
			c0-0.085,0.07-0.154,0.156-0.154h1.382c0.086,0,0.157,0.069,0.157,0.154v7.428L12.693,24.136L12.693,24.136z M18.009,22.597
			c0,0.563-0.121,1.005-0.359,1.311c-0.246,0.319-0.604,0.48-1.062,0.48c-0.29,0-0.557-0.062-0.793-0.18
			c-0.126-0.064-0.249-0.148-0.364-0.25v0.179c0,0.088-0.069,0.157-0.156,0.157H13.88c-0.086,0-0.155-0.069-0.155-0.157V14.069
			c0-0.086,0.069-0.154,0.155-0.154h1.395c0.087,0,0.156,0.068,0.156,0.154v2.849c0.113-0.104,0.235-0.191,0.357-0.263
			c0.237-0.133,0.477-0.195,0.717-0.195c0.487,0,0.866,0.181,1.127,0.541c0.249,0.344,0.375,0.844,0.375,1.48L18.009,22.597
			L18.009,22.597z M23.114,20.599c0,0.086-0.068,0.157-0.155,0.157h-2.485v1.242c0,0.454,0.063,0.646,0.112,0.728
			c0.041,0.066,0.116,0.152,0.333,0.152c0.175,0,0.293-0.041,0.354-0.124c0.027-0.045,0.105-0.216,0.105-0.759v-0.518
			c0-0.087,0.07-0.156,0.157-0.156h1.421c0.087,0,0.154,0.069,0.154,0.156v0.558c0,0.802-0.188,1.414-0.56,1.827
			c-0.371,0.415-0.933,0.629-1.668,0.629c-0.662,0-1.194-0.226-1.58-0.668c-0.377-0.437-0.571-1.037-0.571-1.788v-3.334
			c0-0.682,0.212-1.249,0.63-1.683c0.417-0.436,0.967-0.657,1.626-0.657c0.676,0,1.205,0.207,1.573,0.614
			c0.366,0.405,0.549,0.984,0.549,1.726v1.896h0.004V20.599z"/>
	</g>
</g>
<g>
</g>
<g>
</g>
<g>
</g>
<g>
</g>
<g>
</g>
<g>
</g>
<g>
</g>
<g>
</g>
<g>
</g>
<g>
</g>
<g>
</g>
<g>
</g>
<g>
</g>
<g>
</g>
<g>
</g>
</svg>
